<svg width="134" height="114" viewBox="0 0 134 114" fill="none" xmlns="http://www.w3.org/2000/svg">
<path d="M61.7143 16.2857C61.7143 7.76785 54.8036 0.857137 46.2857 0.857137H15.4286C6.91071 0.857137 0 7.76785 0 16.2857V47.1429C0 55.6607 6.91071 62.5714 15.4286 62.5714H33.4286C37.6875 62.5714 41.1429 66.0268 41.1429 70.2857V72.8571C41.1429 84.1875 31.9018 93.4286 20.5714 93.4286H15.4286C12.6161 93.4286 10.2857 95.7589 10.2857 98.5714V108.857C10.2857 111.67 12.6161 114 15.4286 114H20.5714C43.2321 114 61.7143 95.5179 61.7143 72.8571V16.2857ZM133.714 16.2857C133.714 7.76785 126.804 0.857137 118.286 0.857137H87.4286C78.9107 0.857137 72 7.76785 72 16.2857V47.1429C72 55.6607 78.9107 62.5714 87.4286 62.5714H105.429C109.688 62.5714 113.143 66.0268 113.143 70.2857V72.8571C113.143 84.1875 103.902 93.4286 92.5714 93.4286H87.4286C84.6161 93.4286 82.2857 95.7589 82.2857 98.5714V108.857C82.2857 111.67 84.6161 114 87.4286 114H92.5714C115.232 114 133.714 95.5179 133.714 72.8571V16.2857Z" fill="#E6FFEA"/>
</svg>
