<svg width="8" height="4" viewBox="0 0 8 4" fill="none" xmlns="http://www.w3.org/2000/svg">
<path d="M7.19866 0.642857C7.19866 0.589286 7.17188 0.529017 7.1317 0.488839L6.79688 0.154017C6.7567 0.113839 6.69643 0.0870534 6.64286 0.0870534C6.58929 0.0870534 6.52902 0.113839 6.48884 0.154017L3.85714 2.78571L1.22545 0.154017C1.18527 0.113839 1.125 0.0870534 1.07143 0.0870534C1.01116 0.0870534 0.957589 0.113839 0.917411 0.154017L0.582589 0.488839C0.542411 0.529017 0.515625 0.589286 0.515625 0.642857C0.515625 0.696428 0.542411 0.756696 0.582589 0.796875L3.70312 3.91741C3.7433 3.95759 3.80357 3.98437 3.85714 3.98437C3.91071 3.98437 3.97098 3.95759 4.01116 3.91741L7.1317 0.796875C7.17188 0.756696 7.19866 0.696428 7.19866 0.642857Z" fill="black"/>
</svg>
