<svg width="112" height="17" viewBox="0 0 112 17" fill="none" xmlns="http://www.w3.org/2000/svg">
<path d="M12.5357 0.857142H2.89286C1.29576 0.857142 0 2.1529 0 3.75V13.3929C0 14.99 1.29576 16.2857 2.89286 16.2857H8.23661V10.3092H6.22768V7.97879H8.23661V6.26116C8.23661 4.27232 9.46205 3.1875 11.24 3.1875C12.0837 3.1875 12.817 3.24777 13.0279 3.2779V5.35714L11.8025 5.36719C10.8281 5.36719 10.6473 5.8192 10.6473 6.49219V7.97879H12.9475L12.6462 10.3092H10.6473V16.2857H12.5357C14.1328 16.2857 15.4286 14.99 15.4286 13.3929V3.75C15.4286 2.1529 14.1328 0.857142 12.5357 0.857142ZM57.2193 8.57143C57.2193 9.98772 56.0642 11.1429 54.6479 11.1429C53.2316 11.1429 52.0765 9.98772 52.0765 8.57143C52.0765 7.15513 53.2316 6 54.6479 6C56.0642 6 57.2193 7.15513 57.2193 8.57143ZM58.6055 8.57143C58.6055 6.3817 56.8376 4.61384 54.6479 4.61384C52.4581 4.61384 50.6903 6.3817 50.6903 8.57143C50.6903 10.7612 52.4581 12.529 54.6479 12.529C56.8376 12.529 58.6055 10.7612 58.6055 8.57143ZM59.6903 4.45312C59.6903 3.94085 59.2785 3.52902 58.7662 3.52902C58.2539 3.52902 57.8421 3.94085 57.8421 4.45312C57.8421 4.9654 58.2539 5.37723 58.7662 5.37723C59.2785 5.37723 59.6903 4.9654 59.6903 4.45312ZM54.6479 2.2433C55.7729 2.2433 58.1836 2.1529 59.1981 2.55469C59.5497 2.69531 59.8108 2.86607 60.082 3.13728C60.3532 3.40848 60.524 3.66964 60.6646 4.0212C61.0664 5.03571 60.976 7.44643 60.976 8.57143C60.976 9.69643 61.0664 12.1071 60.6646 13.1217C60.524 13.4732 60.3532 13.7344 60.082 14.0056C59.8108 14.2768 59.5497 14.4475 59.1981 14.5882C58.1836 14.99 55.7729 14.8996 54.6479 14.8996C53.5229 14.8996 51.1122 14.99 50.0977 14.5882C49.7461 14.4475 49.4849 14.2768 49.2137 14.0056C48.9425 13.7344 48.7718 13.4732 48.6311 13.1217C48.2294 12.1071 48.3198 9.69643 48.3198 8.57143C48.3198 7.44643 48.2294 5.03571 48.6311 4.0212C48.7718 3.66964 48.9425 3.40848 49.2137 3.13728C49.4849 2.86607 49.7461 2.69531 50.0977 2.55469C51.1122 2.1529 53.5229 2.2433 54.6479 2.2433ZM62.3622 8.57143C62.3622 7.5067 62.3722 6.45201 62.3119 5.38728C62.2517 4.15179 61.9704 3.05692 61.0664 2.1529C60.1624 1.24888 59.0675 0.967633 57.832 0.907366C56.7673 0.847098 55.7126 0.857142 54.6479 0.857142C53.5831 0.857142 52.5285 0.847098 51.4637 0.907366C50.2282 0.967633 49.1334 1.24888 48.2294 2.1529C47.3253 3.05692 47.0441 4.15179 46.9838 5.38728C46.9235 6.45201 46.9336 7.5067 46.9336 8.57143C46.9336 9.63616 46.9235 10.6908 46.9838 11.7556C47.0441 12.9911 47.3253 14.0859 48.2294 14.99C49.1334 15.894 50.2282 16.1752 51.4637 16.2355C52.5285 16.2958 53.5831 16.2857 54.6479 16.2857C55.7126 16.2857 56.7673 16.2958 57.832 16.2355C59.0675 16.1752 60.1624 15.894 61.0664 14.99C61.9704 14.0859 62.2517 12.9911 62.3119 11.7556C62.3722 10.6908 62.3622 9.63616 62.3622 8.57143ZM101.009 10.9018V5.84933L105.871 8.39062L101.009 10.9018ZM102.867 2.2433C99.0804 2.2433 96.5692 2.42411 96.5692 2.42411C96.2176 2.46429 95.4442 2.46429 94.7612 3.1875C94.7612 3.1875 94.2087 3.72991 94.048 4.97545C93.8571 6.43192 93.8672 7.88839 93.8672 7.88839V9.25446C93.8672 9.25446 93.8571 10.7109 94.048 12.1674C94.2087 13.4029 94.7612 13.9554 94.7612 13.9554C95.4442 14.6685 96.3482 14.6484 96.75 14.7188C96.75 14.7188 98.1864 14.8594 102.867 14.8996C106.654 14.8996 109.165 14.7087 109.165 14.7087C109.517 14.6685 110.29 14.6685 110.973 13.9554C110.973 13.9554 111.526 13.4029 111.686 12.1674C111.877 10.7109 111.867 9.25446 111.867 9.25446V7.88839C111.867 7.88839 111.877 6.43192 111.686 4.97545C111.526 3.72991 110.973 3.1875 110.973 3.1875C110.29 2.46429 109.517 2.46429 109.165 2.42411C109.165 2.42411 106.654 2.2433 102.867 2.2433Z" fill="white"/>
</svg>
