<svg width="21" height="29" viewBox="0 0 21 29" fill="none" xmlns="http://www.w3.org/2000/svg">
<g filter="url(#filter0_d_105_8)">
<path d="M16.596 3.07143C16.596 2.89062 16.5156 2.72991 16.3951 2.60938L15.3906 1.60491C15.2701 1.48438 15.0893 1.40402 14.9286 1.40402C14.7679 1.40402 14.5871 1.48438 14.4665 1.60491L5.10491 10.9665C4.98438 11.0871 4.90402 11.2679 4.90402 11.4286C4.90402 11.5893 4.98438 11.7701 5.10491 11.8906L14.4665 21.2522C14.5871 21.3728 14.7679 21.4531 14.9286 21.4531C15.0893 21.4531 15.2701 21.3728 15.3906 21.2522L16.3951 20.2478C16.5156 20.1272 16.596 19.9464 16.596 19.7857C16.596 19.625 16.5156 19.4442 16.3951 19.3237L8.5 11.4286L16.3951 3.53348C16.5156 3.41295 16.596 3.23214 16.596 3.07143Z" fill="#0A5E31"/>
</g>
<defs>
<filter id="filter0_d_105_8" x="0.904053" y="0.404053" width="19.6919" height="28.0491" filterUnits="userSpaceOnUse" color-interpolation-filters="sRGB">
<feFlood flood-opacity="0" result="BackgroundImageFix"/>
<feColorMatrix in="SourceAlpha" type="matrix" values="0 0 0 0 0 0 0 0 0 0 0 0 0 0 0 0 0 0 127 0" result="hardAlpha"/>
<feOffset dy="3"/>
<feGaussianBlur stdDeviation="2"/>
<feColorMatrix type="matrix" values="0 0 0 0 0.270588 0 0 0 0 0.721569 0 0 0 0 0.34902 0 0 0 1 0"/>
<feBlend mode="normal" in2="BackgroundImageFix" result="effect1_dropShadow_105_8"/>
<feBlend mode="normal" in="SourceGraphic" in2="effect1_dropShadow_105_8" result="shape"/>
</filter>
</defs>
</svg>
