<svg width="20" height="29" viewBox="0 0 20 29" fill="none" xmlns="http://www.w3.org/2000/svg">
<g filter="url(#filter0_d_105_9)">
<path d="M15.9531 11.4286C15.9531 11.2679 15.8728 11.0871 15.7522 10.9665L6.39062 1.60491C6.27009 1.48438 6.08929 1.40402 5.92857 1.40402C5.76786 1.40402 5.58705 1.48438 5.46652 1.60491L4.46205 2.60938C4.34152 2.72991 4.26116 2.91071 4.26116 3.07143C4.26116 3.23214 4.34152 3.41295 4.46205 3.53348L12.3571 11.4286L4.46205 19.3237C4.34152 19.4442 4.26116 19.625 4.26116 19.7857C4.26116 19.9665 4.34152 20.1272 4.46205 20.2478L5.46652 21.2522C5.58705 21.3728 5.76786 21.4531 5.92857 21.4531C6.08929 21.4531 6.27009 21.3728 6.39062 21.2522L15.7522 11.8906C15.8728 11.7701 15.9531 11.5893 15.9531 11.4286Z" fill="#0A5E31"/>
</g>
<defs>
<filter id="filter0_d_105_9" x="0.261169" y="0.404053" width="19.692" height="28.0491" filterUnits="userSpaceOnUse" color-interpolation-filters="sRGB">
<feFlood flood-opacity="0" result="BackgroundImageFix"/>
<feColorMatrix in="SourceAlpha" type="matrix" values="0 0 0 0 0 0 0 0 0 0 0 0 0 0 0 0 0 0 127 0" result="hardAlpha"/>
<feOffset dy="3"/>
<feGaussianBlur stdDeviation="2"/>
<feColorMatrix type="matrix" values="0 0 0 0 0.270588 0 0 0 0 0.721569 0 0 0 0 0.34902 0 0 0 1 0"/>
<feBlend mode="normal" in2="BackgroundImageFix" result="effect1_dropShadow_105_9"/>
<feBlend mode="normal" in="SourceGraphic" in2="effect1_dropShadow_105_9" result="shape"/>
</filter>
</defs>
</svg>
